M48
; DRILL file {KiCad 9.0.2} date 2025-06-21T15:39:49+0500
; FORMAT={-:-/ absolute / metric / decimal}
; #@! TF.CreationDate,2025-06-21T15:39:49+05:00
; #@! TF.GenerationSoftware,Kicad,Pcbnew,9.0.2
; #@! TF.FileFunction,Plated,1,2,PTH
FMAT,2
METRIC
; #@! TA.AperFunction,Plated,PTH,ViaDrill
T1C0.200
; #@! TA.AperFunction,Plated,PTH,ViaDrill
T2C0.300
; #@! TA.AperFunction,Plated,PTH,ComponentDrill
T3C1.000
; #@! TA.AperFunction,Plated,PTH,ComponentDrill
T4C1.500
%
G90
G05
T1
X245.31Y-142.049
X304.18Y-163.404
X321.67Y-102.78
X352.93Y-65.92
X355.133Y-72.78
X357.06Y-58.945
X357.06Y-60.046
X380.934Y-86.269
X381.335Y-88.67
T2
X42.97Y-151.42
X46.24Y-57.73
X48.36Y-153.301
X48.53Y-66.16
X51.03Y-82.6
X51.18Y-77.35
X51.28Y-53.44
X52.435Y-79.316
X52.75Y-60.66
X53.54Y-153.15
X53.56Y-78.2
X53.56Y-158.05
X53.62Y-56.91
X53.63Y-80.48
X54.261Y-47.18
X54.261Y-71.88
X55.94Y-154.4
X55.96Y-102.12
X55.97Y-96.32
X56.03Y-156.52
X57.197Y-98.226
X57.68Y-53.05
X58.32Y-115.55
X58.33Y-121.82
X58.38Y-97.25
X58.41Y-99.45
X58.92Y-91.2
X58.92Y-142.1
X59.43Y-51.95
X59.584Y-117.696
X60.192Y-82.6
X60.54Y-139.47
X60.76Y-116.3
X60.77Y-118.53
X61.38Y-109.86
X61.47Y-59.8
X61.57Y-54.44
X61.571Y-140.561
X63.06Y-134.52
X64.341Y-136.42
X64.53Y-111.49
X65.22Y-123.744
X65.51Y-135.35
X65.54Y-137.44
X65.59Y-142.56
X65.75Y-128.91
X66.4Y-153.11
X67.47Y-128.94
X68.086Y-158.05
X69.248Y-102.12
X69.84Y-52.09
X69.89Y-57.7
X70.2Y-77.59
X70.63Y-102.87
X71.485Y-77.996
X72.68Y-80.35
X72.75Y-78.2
X73.29Y-71.87
X73.36Y-121.82
X74.35Y-94.951
X75.82Y-59.81
X76.16Y-55.533
X76.64Y-71.9
X77.36Y-153.17
X77.47Y-56.46
X78.72Y-154.51
X79.242Y-82.6
X79.28Y-115.201
X79.73Y-96.54
X79.78Y-147.79
X79.814Y-154.4
X79.83Y-156.54
X81.45Y-135.79
X81.82Y-109.701
X81.88Y-140.2
X82.187Y-97.25
X82.21Y-99.44
X82.7Y-90.97
X82.96Y-133.69
X83.736Y-148.016
X84.06Y-77.11
X84.49Y-115.8
X84.75Y-145.89
X86.972Y-116.3
X86.98Y-118.35
X87.39Y-109.79
X88.297Y-102.12
X88.82Y-57.71
X89.04Y-59.81
X89.25Y-77.23
X89.975Y-152.175
X90.61Y-142.02
X91.74Y-80.49
X91.75Y-78.2
X91.79Y-158.05
X92.41Y-121.82
X94.02Y-133.67
X94.05Y-94.89
X95.297Y-55.633
X95.297Y-136.42
X95.71Y-71.8
X96.48Y-135.35
X96.5Y-56.54
X96.51Y-137.67
X96.94Y-128.93
X97.124Y-49.057
X98.292Y-82.6
X98.77Y-95.78
X100.785Y-142.02
X101.16Y-153.67
X101.257Y-97.25
X101.26Y-99.32
X101.57Y-91.49
X102.441Y-155.24
X103.07Y-77.15
X103.53Y-115.73
X103.6Y-154.4
X103.65Y-156.56
X104.295Y-148.811
X104.822Y-117.466
X106.03Y-116.3
X106.03Y-118.4
X106.56Y-109.99
X107.347Y-102.12
X107.91Y-57.71
X107.95Y-59.81
X108.31Y-77.65
X110.79Y-80.42
X110.835Y-78.2
X111.25Y-94.951
X111.46Y-121.82
X113.1Y-134.1
X113.8Y-70.95
X114.3Y-55.28
X114.347Y-136.4
X115.541Y-135.35
X115.55Y-137.53
X115.56Y-56.4
X115.95Y-142.02
X116.173Y-48.0
X116.173Y-128.64
X117.343Y-82.6
X117.83Y-96.22
X120.303Y-97.25
X120.31Y-99.42
X120.32Y-91.04
X122.18Y-77.21
X122.64Y-115.62
X123.872Y-117.22
X125.08Y-118.52
X125.164Y-116.3
X125.698Y-109.74
X126.397Y-102.12
X126.94Y-57.71
X127.1Y-59.81
X127.38Y-77.63
X129.85Y-80.42
X129.86Y-78.2
X130.51Y-121.82
X132.14Y-134.51
X132.15Y-94.951
X133.398Y-55.449
X133.398Y-136.488
X134.02Y-71.75
X134.552Y-135.35
X134.62Y-56.66
X134.64Y-137.6
X134.74Y-47.98
X134.75Y-128.96
X136.392Y-82.6
X136.89Y-96.25
X139.33Y-97.25
X139.35Y-99.31
X139.42Y-91.16
X139.565Y-141.34
X141.24Y-77.101
X141.7Y-115.47
X142.37Y-92.99
X142.922Y-117.478
X144.13Y-116.3
X144.13Y-118.34
X144.67Y-109.57
X145.447Y-102.12
X146.42Y-77.15
X148.89Y-80.26
X148.951Y-78.2
X149.56Y-121.82
X150.68Y-96.31
X150.71Y-57.71
X150.71Y-59.81
X151.19Y-134.39
X152.45Y-72.3
X152.468Y-135.78
X153.257Y-90.651
X153.633Y-135.35
X153.67Y-137.67
X154.03Y-128.77
X155.442Y-82.6
X155.92Y-96.66
X157.21Y-55.5
X158.4Y-97.25
X158.41Y-99.44
X158.43Y-56.73
X158.615Y-141.34
X159.036Y-48.06
X159.036Y-90.53
X160.29Y-77.101
X160.73Y-115.35
X161.72Y-156.08
X161.972Y-117.328
X162.72Y-144.933
X163.18Y-116.3
X163.18Y-118.36
X163.798Y-109.8
X164.498Y-102.12
X165.43Y-77.5
X167.4Y-153.601
X167.922Y-78.2
X167.94Y-80.26
X168.61Y-121.82
X169.455Y-147.859
X169.7Y-57.71
X169.78Y-59.81
X170.07Y-144.69
X170.22Y-134.6
X171.498Y-136.414
X172.0Y-140.23
X172.18Y-72.21
X172.57Y-153.54
X172.623Y-135.35
X172.7Y-137.39
X172.98Y-151.92
X173.323Y-128.67
X174.492Y-82.6
X174.96Y-96.51
X175.1Y-156.5
X175.128Y-154.4
X176.132Y-55.386
X176.268Y-98.663
X177.451Y-97.25
X177.47Y-56.58
X177.47Y-99.34
X177.665Y-141.34
X177.91Y-90.8
X178.086Y-47.96
X179.32Y-77.101
X179.76Y-115.51
X181.022Y-117.354
X182.21Y-116.3
X182.24Y-118.35
X182.73Y-109.91
X183.547Y-102.12
X184.52Y-77.25
X186.96Y-78.2
X186.99Y-80.26
X187.66Y-121.82
X188.86Y-57.71
X189.28Y-134.77
X190.41Y-72.66
X190.547Y-136.384
X191.74Y-135.35
X191.76Y-137.72
X192.33Y-129.04
X193.542Y-82.6
X194.04Y-96.57
X195.31Y-55.29
X195.31Y-98.56
X195.91Y-59.96
X196.46Y-97.25
X196.51Y-56.59
X196.52Y-99.41
X196.63Y-47.66
X196.715Y-141.34
X197.136Y-90.8
X198.32Y-77.101
X198.81Y-115.77
X200.072Y-117.25
X201.265Y-116.3
X201.28Y-118.65
X201.898Y-109.95
X202.597Y-102.12
X203.56Y-77.03
X206.04Y-80.36
X206.08Y-78.2
X206.71Y-121.82
X207.89Y-57.71
X208.11Y-59.96
X208.33Y-134.62
X209.26Y-72.94
X209.597Y-136.38
X210.79Y-137.71
X210.81Y-135.35
X211.423Y-128.68
X212.593Y-82.6
X213.07Y-96.22
X214.36Y-55.28
X214.36Y-98.33
X215.38Y-90.65
X215.5Y-97.25
X215.56Y-56.43
X215.57Y-99.3
X216.186Y-47.61
X216.998Y-140.088
X217.42Y-77.101
X217.84Y-115.63
X219.1Y-117.41
X220.31Y-116.3
X220.33Y-118.38
X220.58Y-109.65
X221.647Y-102.12
X222.28Y-156.08
X222.61Y-77.67
X225.089Y-78.2
X225.1Y-80.3
X225.76Y-121.82
X227.38Y-134.33
X228.61Y-136.23
X229.21Y-72.28
X229.84Y-135.35
X229.86Y-137.8
X229.97Y-128.99
X231.642Y-82.6
X231.8Y-57.71
X232.13Y-96.39
X233.41Y-98.35
X234.56Y-97.25
X234.62Y-99.3
X235.236Y-90.84
X235.455Y-150.58
X235.99Y-157.1
X236.42Y-77.1
X236.572Y-139.582
X236.88Y-115.58
X237.201Y-152.101
X238.16Y-117.64
X238.172Y-55.468
X238.76Y-59.69
X239.36Y-56.5
X239.37Y-116.3
X239.38Y-118.39
X239.59Y-47.93
X239.61Y-109.71
X240.697Y-102.12
X240.99Y-138.83
X241.64Y-77.37
X241.65Y-153.77
X242.935Y-155.35
X243.84Y-148.63
X244.13Y-154.4
X244.14Y-80.51
X244.14Y-156.44
X244.17Y-78.2
X244.761Y-151.63
X244.81Y-121.82
X245.961Y-149.532
X246.42Y-134.52
X246.94Y-145.33
X247.68Y-72.38
X247.697Y-136.16
X248.6Y-143.82
X248.87Y-135.35
X248.9Y-137.69
X249.37Y-128.88
X249.52Y-152.03
X250.692Y-82.6
X251.05Y-57.71
X251.18Y-96.62
X251.302Y-158.19
X252.166Y-153.374
X252.46Y-98.194
X253.37Y-137.67
X253.635Y-97.25
X253.67Y-99.29
X254.04Y-90.89
X255.29Y-134.251
X255.42Y-77.101
X255.95Y-115.45
X256.162Y-139.042
X257.19Y-55.53
X257.222Y-117.257
X257.51Y-59.87
X258.39Y-47.99
X258.398Y-116.3
X258.41Y-56.47
X258.45Y-118.36
X259.048Y-109.81
X259.748Y-102.12
X260.29Y-134.61
X260.71Y-77.62
X260.73Y-153.52
X261.92Y-47.48
X261.985Y-155.29
X263.15Y-78.2
X263.19Y-80.53
X263.21Y-147.94
X263.21Y-156.63
X263.24Y-154.4
X263.86Y-121.82
X265.45Y-134.54
X266.833Y-138.206
X267.56Y-71.75
X267.95Y-135.35
X267.95Y-137.2
X268.56Y-129.01
X269.66Y-57.5
X269.743Y-82.6
X270.22Y-96.73
X270.352Y-158.19
X270.46Y-153.49
X270.67Y-59.77
X271.51Y-98.333
X272.38Y-77.1
X272.69Y-97.25
X272.69Y-99.4
X273.26Y-91.29
X273.9Y-77.49
X275.01Y-115.63
X275.94Y-59.95
X276.1Y-93.46
X276.272Y-117.28
X276.273Y-55.737
X276.55Y-137.2
X276.85Y-96.48
X277.448Y-116.3
X277.48Y-56.55
X277.49Y-118.34
X277.94Y-47.79
X277.99Y-110.06
X278.798Y-102.12
X279.74Y-77.14
X279.77Y-153.72
X279.92Y-85.49
X280.35Y-108.3
X280.88Y-48.42
X281.035Y-155.303
X281.35Y-159.99
X281.45Y-71.23
X281.63Y-42.65
X282.23Y-80.43
X282.23Y-132.61
X282.24Y-156.43
X282.26Y-78.2
X282.414Y-138.885
X282.861Y-72.71
X282.88Y-59.85
X283.14Y-65.85
X283.48Y-154.801
X284.12Y-96.151
X285.596Y-74.016
X285.9Y-71.12
X286.628Y-90.651
X287.262Y-127.025
X287.33Y-82.28
X287.45Y-75.57
X288.32Y-57.49
X288.84Y-53.45
X288.989Y-128.751
X289.3Y-96.29
X289.31Y-117.98
X290.9Y-64.28
X291.43Y-52.887
X291.68Y-134.36
X291.77Y-99.37
X291.82Y-97.25
X292.22Y-159.83
X292.36Y-91.84
X292.902Y-133.748
X292.961Y-135.53
X293.5Y-156.43
X294.15Y-141.93
X294.57Y-129.54
X294.75Y-161.15
X294.86Y-158.064
X295.256Y-55.301
X295.55Y-135.751
X296.54Y-56.74
X298.47Y-79.84
X299.1Y-88.39
X301.45Y-163.356
X301.83Y-147.02
X302.39Y-81.0
X302.61Y-102.12
X303.14Y-77.101
X303.5Y-162.17
X303.57Y-158.53
X305.97Y-115.56
X306.03Y-161.32
X306.129Y-159.162
X307.05Y-130.14
X307.276Y-117.875
X308.33Y-77.28
X308.37Y-160.01
X308.404Y-116.3
X308.43Y-118.35
X308.94Y-136.49
X309.055Y-109.77
X309.89Y-120.4
X310.084Y-136.144
X310.54Y-132.91
X310.785Y-78.2
X310.81Y-80.25
X312.37Y-138.42
X312.55Y-53.39
X313.09Y-96.57
X313.68Y-73.84
X313.877Y-160.01
X314.373Y-98.11
X315.02Y-117.23
X315.21Y-148.87
X315.55Y-97.25
X315.58Y-99.3
X316.17Y-90.55
X317.172Y-117.038
X317.43Y-139.39
X317.876Y-156.497
X318.98Y-55.44
X319.678Y-133.112
X320.05Y-148.756
X320.16Y-146.84
X320.33Y-56.78
X320.4Y-128.09
X322.61Y-157.7
X322.65Y-162.17
X323.769Y-158.724
X325.05Y-152.68
X325.07Y-159.162
X325.09Y-140.112
X325.1Y-142.26
X325.1Y-161.23
X325.724Y-134.11
X327.64Y-142.589
X330.1Y-127.01
X330.54Y-141.86
X331.05Y-161.981
X331.55Y-138.0
X331.78Y-117.1
X332.829Y-143.339
X332.83Y-77.101
X332.85Y-117.98
X333.503Y-144.807
X334.77Y-61.3
X335.72Y-79.88
X335.947Y-102.12
X338.906Y-152.474
X339.765Y-60.55
X340.92Y-139.35
X341.18Y-96.32
X341.66Y-158.28
X343.68Y-61.34
X344.15Y-159.162
X344.233Y-114.768
X345.62Y-142.07
X346.41Y-115.59
X346.42Y-77.1
X346.44Y-96.43
X346.46Y-134.35
X346.61Y-144.49
X347.71Y-98.37
X347.71Y-136.44
X348.88Y-97.25
X348.885Y-135.35
X348.91Y-80.56
X348.91Y-121.18
X348.91Y-137.74
X348.92Y-99.54
X348.92Y-102.67
X348.92Y-146.5
X348.93Y-116.3
X348.94Y-104.52
X350.11Y-144.49
X351.5Y-61.37
X352.287Y-66.197
X352.428Y-145.26
X352.428Y-146.3
X352.428Y-147.1
X354.56Y-41.457
X355.134Y-160.144
X355.233Y-67.1
X355.233Y-68.88
X355.449Y-69.65
X355.449Y-70.89
X355.864Y-160.472
X356.48Y-67.715
X357.03Y-61.99
X357.09Y-57.56
X357.205Y-55.315
X357.38Y-44.255
X357.6Y-73.63
X357.64Y-91.43
X362.611Y-52.539
X363.11Y-50.86
X363.24Y-62.17
X363.29Y-54.23
X364.953Y-83.6
X366.31Y-96.84
X366.39Y-59.6
X368.465Y-60.815
X371.92Y-51.66
X372.84Y-58.7
X374.22Y-81.13
X374.396Y-68.454
X374.4Y-72.31
X376.31Y-93.79
X376.35Y-83.98
X376.73Y-90.492
X377.15Y-75.15
X377.313Y-92.97
X377.313Y-100.99
X380.1Y-103.78
X380.122Y-96.628
X381.204Y-105.634
T3
X338.694Y-47.295
X338.694Y-49.795
X338.694Y-52.295
X353.194Y-47.295
X353.194Y-52.295
X361.239Y-44.255
X361.239Y-46.795
X361.239Y-49.335
X361.239Y-51.875
X361.239Y-54.415
X361.239Y-56.955
X361.239Y-59.495
X361.239Y-62.035
X361.239Y-64.575
X361.239Y-67.115
X361.239Y-69.655
X361.239Y-72.195
X361.239Y-74.735
X361.239Y-77.275
X361.239Y-79.815
X361.239Y-82.355
X361.239Y-84.895
X361.239Y-87.435
X361.239Y-89.975
X361.239Y-92.515
X366.709Y-104.12
X369.249Y-104.12
X371.789Y-104.12
X374.329Y-104.12
X379.019Y-44.255
X379.019Y-46.795
X379.019Y-49.335
X379.019Y-51.875
X379.019Y-54.415
X379.019Y-56.955
X379.019Y-59.495
X379.019Y-62.035
X379.019Y-64.575
X379.019Y-67.115
X379.019Y-69.655
X379.019Y-72.195
X379.019Y-74.735
X379.019Y-77.275
X379.019Y-79.815
X379.019Y-82.355
X379.019Y-84.895
X379.019Y-87.435
X379.019Y-89.975
X379.019Y-92.515
T4
G00X345.544Y-44.195
M15
G01X346.844Y-44.195
M16
G05
G00X345.544Y-55.395
M15
G01X346.844Y-55.395
M16
G05
M30
