M48
; DRILL file {KiCad 9.0.2} date 2025-06-21T15:39:49+0500
; FORMAT={-:-/ absolute / metric / decimal}
; #@! TF.CreationDate,2025-06-21T15:39:49+05:00
; #@! TF.GenerationSoftware,Kicad,Pcbnew,9.0.2
; #@! TF.FileFunction,NonPlated,1,2,NPTH
FMAT,2
METRIC
; #@! TA.AperFunction,NonPlated,NPTH,ComponentDrill
T1C1.750
; #@! TA.AperFunction,NonPlated,NPTH,ComponentDrill
T2C1.850
; #@! TA.AperFunction,NonPlated,NPTH,ComponentDrill
T3C2.200
; #@! TA.AperFunction,NonPlated,NPTH,ComponentDrill
T4C3.048
; #@! TA.AperFunction,NonPlated,NPTH,ComponentDrill
T5C3.050
; #@! TA.AperFunction,NonPlated,NPTH,ComponentDrill
T6C3.988
; #@! TA.AperFunction,NonPlated,NPTH,ComponentDrill
T7C4.000
%
G90
G05
T1
X43.475Y-50.337
X43.475Y-74.15
X45.856Y-150.35
X48.237Y-93.2
X50.619Y-112.25
X53.635Y-50.337
X53.635Y-74.15
X55.381Y-131.3
X56.016Y-150.35
X58.398Y-93.2
X60.779Y-112.25
X62.525Y-74.15
X65.541Y-131.3
X67.287Y-50.337
X69.669Y-150.35
X72.05Y-93.2
X72.685Y-74.15
X76.812Y-112.25
X77.447Y-50.337
X79.829Y-150.35
X81.575Y-74.15
X82.21Y-93.2
X86.337Y-50.337
X86.337Y-131.3
X86.972Y-112.25
X91.1Y-93.2
X91.735Y-74.15
X93.481Y-150.35
X95.862Y-112.25
X96.498Y-50.337
X96.498Y-131.3
X100.625Y-74.15
X101.26Y-93.2
X103.641Y-150.35
X105.387Y-50.337
X105.387Y-131.3
X106.022Y-112.25
X110.15Y-93.2
X110.785Y-74.15
X114.912Y-112.25
X115.547Y-50.337
X115.547Y-131.3
X119.675Y-74.15
X120.31Y-93.2
X124.438Y-50.337
X124.438Y-131.3
X125.072Y-112.25
X129.2Y-93.2
X129.835Y-74.15
X133.963Y-112.25
X134.597Y-50.337
X134.597Y-131.3
X138.725Y-74.15
X139.36Y-93.2
X143.487Y-131.3
X144.123Y-112.25
X148.25Y-50.337
X148.25Y-93.2
X148.885Y-74.15
X153.012Y-112.25
X153.647Y-131.3
X157.775Y-74.15
X158.41Y-50.337
X158.41Y-93.2
X162.537Y-131.3
X163.172Y-112.25
X164.919Y-150.35
X167.3Y-50.337
X167.3Y-93.2
X167.935Y-74.15
X172.062Y-112.25
X172.697Y-131.3
X175.079Y-150.35
X176.825Y-74.15
X177.46Y-50.337
X177.46Y-93.2
X181.588Y-131.3
X182.222Y-112.25
X186.35Y-50.337
X186.35Y-93.2
X186.985Y-74.15
X191.112Y-112.25
X191.748Y-131.3
X195.875Y-74.15
X196.51Y-50.337
X196.51Y-93.2
X200.637Y-131.3
X201.272Y-112.25
X205.4Y-50.337
X205.4Y-93.2
X206.035Y-74.15
X210.162Y-112.25
X210.797Y-131.3
X214.925Y-74.15
X215.56Y-50.337
X215.56Y-93.2
X219.688Y-131.3
X220.322Y-112.25
X224.45Y-93.2
X225.085Y-74.15
X229.212Y-50.337
X229.212Y-112.25
X229.847Y-131.3
X233.975Y-74.15
X233.975Y-150.35
X234.61Y-93.2
X238.737Y-131.3
X239.373Y-50.337
X239.373Y-112.25
X243.5Y-93.2
X244.135Y-74.15
X244.135Y-150.35
X248.262Y-50.337
X248.262Y-112.25
X248.897Y-131.3
X253.025Y-74.15
X253.025Y-150.35
X253.66Y-93.2
X257.787Y-131.3
X258.423Y-50.337
X258.423Y-112.25
X262.55Y-93.2
X263.185Y-74.15
X263.185Y-150.35
X267.312Y-50.337
X267.312Y-112.25
X267.947Y-131.3
X272.075Y-74.15
X272.075Y-150.35
X272.71Y-93.2
X277.472Y-50.337
X277.472Y-112.25
X281.6Y-93.2
X282.235Y-74.15
X282.235Y-150.35
X283.981Y-131.3
X286.363Y-50.337
X291.76Y-93.2
X294.141Y-131.3
X295.887Y-155.112
X296.522Y-50.337
X298.269Y-112.25
X300.65Y-74.15
X305.412Y-93.2
X306.048Y-155.112
X308.429Y-112.25
X310.175Y-50.337
X310.81Y-74.15
X314.938Y-136.062
X314.938Y-155.112
X315.572Y-93.2
X320.335Y-50.337
X325.097Y-136.062
X325.097Y-155.112
X333.988Y-155.112
X338.75Y-74.15
X338.75Y-93.2
X338.75Y-112.25
X338.75Y-131.3
X344.147Y-155.112
X348.91Y-74.15
X348.91Y-93.2
X348.91Y-112.25
X348.91Y-131.3
T2
X367.704Y-47.415
X372.554Y-47.415
T3
X40.86Y-163.97
X328.18Y-66.49
X367.404Y-44.385
X371.07Y-99.47
X372.854Y-44.385
X378.957Y-163.97
T4
X48.523Y-124.315
X72.399Y-124.315
X119.999Y-143.365
X219.999Y-143.365
X291.411Y-105.265
X293.792Y-67.165
X315.287Y-105.265
X317.668Y-67.165
T5
X44.745Y-47.797
X44.745Y-71.61
X47.126Y-147.81
X49.508Y-90.66
X51.095Y-45.258
X51.095Y-69.07
X51.889Y-109.71
X53.476Y-145.27
X55.857Y-88.12
X56.651Y-128.76
X58.239Y-107.17
X63.001Y-126.22
X63.795Y-71.61
X68.557Y-47.797
X70.145Y-69.07
X70.939Y-147.81
X73.32Y-90.66
X74.907Y-45.258
X77.289Y-145.27
X78.082Y-109.71
X79.67Y-88.12
X82.845Y-71.61
X84.432Y-107.17
X87.608Y-47.797
X87.608Y-128.76
X89.195Y-69.07
X92.37Y-90.66
X93.957Y-45.258
X93.957Y-126.22
X94.751Y-147.81
X97.132Y-109.71
X98.72Y-88.12
X101.101Y-145.27
X101.895Y-71.61
X103.483Y-107.17
X106.657Y-47.797
X106.657Y-128.76
X108.245Y-69.07
X111.42Y-90.66
X113.007Y-45.258
X113.007Y-126.22
X116.182Y-109.71
X117.77Y-88.12
X120.945Y-71.61
X122.532Y-107.17
X125.707Y-47.797
X125.707Y-128.76
X127.295Y-69.07
X130.47Y-90.66
X132.058Y-45.258
X132.058Y-126.22
X135.232Y-109.71
X136.82Y-88.12
X139.995Y-71.61
X141.582Y-107.17
X144.757Y-128.76
X146.345Y-69.07
X149.52Y-47.797
X149.52Y-90.66
X151.107Y-126.22
X154.282Y-109.71
X155.87Y-45.258
X155.87Y-88.12
X159.045Y-71.61
X160.632Y-107.17
X163.808Y-128.76
X165.395Y-69.07
X166.189Y-147.81
X168.57Y-47.797
X168.57Y-90.66
X170.157Y-126.22
X172.539Y-145.27
X173.332Y-109.71
X174.92Y-45.258
X174.92Y-88.12
X178.095Y-71.61
X179.683Y-107.17
X182.857Y-128.76
X184.445Y-69.07
X187.62Y-47.797
X187.62Y-90.66
X189.207Y-126.22
X192.382Y-109.71
X193.97Y-45.258
X193.97Y-88.12
X197.145Y-71.61
X198.732Y-107.17
X201.907Y-128.76
X203.495Y-69.07
X206.67Y-47.797
X206.67Y-90.66
X208.257Y-126.22
X211.433Y-109.71
X213.02Y-45.258
X213.02Y-88.12
X216.195Y-71.61
X217.782Y-107.17
X220.957Y-128.76
X222.545Y-69.07
X225.72Y-90.66
X227.307Y-126.22
X230.482Y-47.797
X230.482Y-109.71
X232.07Y-88.12
X235.245Y-71.61
X235.245Y-147.81
X236.832Y-45.258
X236.832Y-107.17
X240.007Y-128.76
X241.595Y-69.07
X241.595Y-145.27
X244.77Y-90.66
X246.357Y-126.22
X249.532Y-47.797
X249.532Y-109.71
X251.12Y-88.12
X254.295Y-71.61
X254.295Y-147.81
X255.882Y-45.258
X255.882Y-107.17
X259.058Y-128.76
X260.645Y-69.07
X260.645Y-145.27
X263.82Y-90.66
X265.407Y-126.22
X268.582Y-47.797
X268.582Y-109.71
X270.17Y-88.12
X273.345Y-71.61
X273.345Y-147.81
X274.933Y-45.258
X274.933Y-107.17
X279.695Y-69.07
X279.695Y-145.27
X282.87Y-90.66
X285.251Y-128.76
X287.632Y-47.797
X289.22Y-88.12
X291.601Y-126.22
X293.982Y-45.258
X297.157Y-152.572
X299.539Y-109.71
X301.92Y-71.61
X303.507Y-150.032
X305.889Y-107.17
X306.683Y-90.66
X308.27Y-69.07
X311.445Y-47.797
X313.032Y-88.12
X316.207Y-133.523
X316.207Y-152.572
X317.795Y-45.258
X322.558Y-130.982
X322.558Y-150.032
X335.257Y-152.572
X340.02Y-71.61
X340.02Y-90.66
X340.02Y-109.71
X340.02Y-128.76
X341.607Y-150.032
X346.37Y-69.07
X346.37Y-88.12
X346.37Y-107.17
X346.37Y-126.22
T6
X48.523Y-139.525
X72.399Y-139.525
X119.999Y-158.575
X219.999Y-158.575
X291.411Y-120.475
X293.792Y-82.375
X315.287Y-120.475
X317.668Y-82.375
T7
X48.555Y-50.337
X48.555Y-74.15
X50.936Y-150.35
X53.317Y-93.2
X55.699Y-112.25
X60.461Y-131.3
X67.605Y-74.15
X72.367Y-50.337
X74.749Y-150.35
X77.13Y-93.2
X81.892Y-112.25
X86.655Y-74.15
X91.417Y-50.337
X91.417Y-131.3
X96.18Y-93.2
X98.561Y-150.35
X100.942Y-112.25
X105.705Y-74.15
X110.468Y-50.337
X110.468Y-131.3
X115.23Y-93.2
X119.992Y-112.25
X124.755Y-74.15
X129.517Y-50.337
X129.517Y-131.3
X134.28Y-93.2
X139.042Y-112.25
X143.805Y-74.15
X148.567Y-131.3
X153.33Y-50.337
X153.33Y-93.2
X158.093Y-112.25
X162.855Y-74.15
X167.617Y-131.3
X169.999Y-150.35
X172.38Y-50.337
X172.38Y-93.2
X177.142Y-112.25
X181.905Y-74.15
X186.667Y-131.3
X191.43Y-50.337
X191.43Y-93.2
X196.192Y-112.25
X200.955Y-74.15
X205.718Y-131.3
X210.48Y-50.337
X210.48Y-93.2
X215.242Y-112.25
X220.005Y-74.15
X224.767Y-131.3
X229.53Y-93.2
X234.292Y-50.337
X234.292Y-112.25
X239.055Y-74.15
X239.055Y-150.35
X243.817Y-131.3
X248.58Y-93.2
X253.343Y-50.337
X253.343Y-112.25
X258.105Y-74.15
X258.105Y-150.35
X262.868Y-131.3
X267.63Y-93.2
X272.392Y-50.337
X272.392Y-112.25
X277.155Y-74.15
X277.155Y-150.35
X286.68Y-93.2
X289.061Y-131.3
X291.442Y-50.337
X300.967Y-155.112
X303.349Y-112.25
X305.73Y-74.15
X310.493Y-93.2
X315.255Y-50.337
X320.017Y-136.062
X320.017Y-155.112
X339.067Y-155.112
X343.83Y-74.15
X343.83Y-93.2
X343.83Y-112.25
X343.83Y-131.3
M30
