%TF.GenerationSoftware,KiCad,Pcbnew,9.0.2*%
%TF.CreationDate,2025-06-21T15:39:45+05:00*%
%TF.ProjectId,KB75,4b423735-2e6b-4696-9361-645f70636258,V1*%
%TF.SameCoordinates,Original*%
%TF.FileFunction,Soldermask,Top*%
%TF.FilePolarity,Negative*%
%FSLAX46Y46*%
G04 Gerber Fmt 4.6, Leading zero omitted, Abs format (unit mm)*
G04 Created by KiCad (PCBNEW 9.0.2) date 2025-06-21 15:39:45*
%MOMM*%
%LPD*%
G01*
G04 APERTURE LIST*
G04 Aperture macros list*
%AMRoundRect*
0 Rectangle with rounded corners*
0 $1 Rounding radius*
0 $2 $3 $4 $5 $6 $7 $8 $9 X,Y pos of 4 corners*
0 Add a 4 corners polygon primitive as box body*
4,1,4,$2,$3,$4,$5,$6,$7,$8,$9,$2,$3,0*
0 Add four circle primitives for the rounded corners*
1,1,$1+$1,$2,$3*
1,1,$1+$1,$4,$5*
1,1,$1+$1,$6,$7*
1,1,$1+$1,$8,$9*
0 Add four rect primitives between the rounded corners*
20,1,$1+$1,$2,$3,$4,$5,0*
20,1,$1+$1,$4,$5,$6,$7,0*
20,1,$1+$1,$6,$7,$8,$9,0*
20,1,$1+$1,$8,$9,$2,$3,0*%
%AMFreePoly0*
4,1,37,0.800000,0.796148,0.878414,0.796148,1.032228,0.765552,1.177117,0.705537,1.307515,0.618408,1.418408,0.507515,1.505537,0.377117,1.565552,0.232228,1.596148,0.078414,1.596148,-0.078414,1.565552,-0.232228,1.505537,-0.377117,1.418408,-0.507515,1.307515,-0.618408,1.177117,-0.705537,1.032228,-0.765552,0.878414,-0.796148,0.800000,-0.796148,0.800000,-0.800000,-1.400000,-0.800000,
-1.403843,-0.796157,-1.439018,-0.796157,-1.511114,-0.766294,-1.566294,-0.711114,-1.596157,-0.639018,-1.596157,-0.603843,-1.600000,-0.600000,-1.600000,0.600000,-1.596157,0.603843,-1.596157,0.639018,-1.566294,0.711114,-1.511114,0.766294,-1.439018,0.796157,-1.403843,0.796157,-1.400000,0.800000,0.800000,0.800000,0.800000,0.796148,0.800000,0.796148,$1*%
%AMFreePoly1*
4,1,37,1.403843,0.796157,1.439018,0.796157,1.511114,0.766294,1.566294,0.711114,1.596157,0.639018,1.596157,0.603843,1.600000,0.600000,1.600000,-0.600000,1.596157,-0.603843,1.596157,-0.639018,1.566294,-0.711114,1.511114,-0.766294,1.439018,-0.796157,1.403843,-0.796157,1.400000,-0.800000,-0.800000,-0.800000,-0.800000,-0.796148,-0.878414,-0.796148,-1.032228,-0.765552,-1.177117,-0.705537,
-1.307515,-0.618408,-1.418408,-0.507515,-1.505537,-0.377117,-1.565552,-0.232228,-1.596148,-0.078414,-1.596148,0.078414,-1.565552,0.232228,-1.505537,0.377117,-1.418408,0.507515,-1.307515,0.618408,-1.177117,0.705537,-1.032228,0.765552,-0.878414,0.796148,-0.800000,0.796148,-0.800000,0.800000,1.400000,0.800000,1.403843,0.796157,1.403843,0.796157,$1*%
%AMFreePoly2*
4,1,37,0.603843,0.796157,0.639018,0.796157,0.711114,0.766294,0.766294,0.711114,0.796157,0.639018,0.796157,0.603843,0.800000,0.600000,0.800000,-0.600000,0.796157,-0.603843,0.796157,-0.639018,0.766294,-0.711114,0.711114,-0.766294,0.639018,-0.796157,0.603843,-0.796157,0.600000,-0.800000,0.000000,-0.800000,0.000000,-0.796148,-0.078414,-0.796148,-0.232228,-0.765552,-0.377117,-0.705537,
-0.507515,-0.618408,-0.618408,-0.507515,-0.705537,-0.377117,-0.765552,-0.232228,-0.796148,-0.078414,-0.796148,0.078414,-0.765552,0.232228,-0.705537,0.377117,-0.618408,0.507515,-0.507515,0.618408,-0.377117,0.705537,-0.232228,0.765552,-0.078414,0.796148,0.000000,0.796148,0.000000,0.800000,0.600000,0.800000,0.603843,0.796157,0.603843,0.796157,$1*%
%AMFreePoly3*
4,1,37,0.000000,0.796148,0.078414,0.796148,0.232228,0.765552,0.377117,0.705537,0.507515,0.618408,0.618408,0.507515,0.705537,0.377117,0.765552,0.232228,0.796148,0.078414,0.796148,-0.078414,0.765552,-0.232228,0.705537,-0.377117,0.618408,-0.507515,0.507515,-0.618408,0.377117,-0.705537,0.232228,-0.765552,0.078414,-0.796148,0.000000,-0.796148,0.000000,-0.800000,-0.600000,-0.800000,
-0.603843,-0.796157,-0.639018,-0.796157,-0.711114,-0.766294,-0.766294,-0.711114,-0.796157,-0.639018,-0.796157,-0.603843,-0.800000,-0.600000,-0.800000,0.600000,-0.796157,0.603843,-0.796157,0.639018,-0.766294,0.711114,-0.711114,0.766294,-0.639018,0.796157,-0.603843,0.796157,-0.600000,0.800000,0.000000,0.800000,0.000000,0.796148,0.000000,0.796148,$1*%
G04 Aperture macros list end*
%ADD10C,2.200000*%
%ADD11C,1.850000*%
%ADD12FreePoly0,0.000000*%
%ADD13RoundRect,0.200000X-0.600000X-0.600000X0.600000X-0.600000X0.600000X0.600000X-0.600000X0.600000X0*%
%ADD14RoundRect,0.800000X-0.800000X-0.000010X0.800000X-0.000010X0.800000X0.000010X-0.800000X0.000010X0*%
%ADD15C,1.600000*%
%ADD16FreePoly1,0.000000*%
%ADD17FreePoly2,0.000000*%
%ADD18FreePoly3,0.000000*%
%ADD19C,1.750000*%
%ADD20C,3.050000*%
%ADD21C,4.000000*%
%ADD22R,2.000000X2.000000*%
%ADD23C,2.000000*%
%ADD24R,3.200000X2.000000*%
%ADD25C,3.048000*%
%ADD26C,3.987800*%
%ADD27R,1.700000X1.700000*%
%ADD28O,1.700000X1.700000*%
G04 APERTURE END LIST*
D10*
%TO.C,A1*%
X367404482Y-44385026D03*
D11*
X367704482Y-47415026D03*
X372554482Y-47415026D03*
D10*
X372854482Y-44385026D03*
D12*
X360439482Y-44255026D03*
D13*
X361239482Y-44255026D03*
D14*
X360439482Y-46795026D03*
D15*
X361239482Y-46795026D03*
D16*
X360439482Y-49335026D03*
D17*
X361239482Y-49335026D03*
D14*
X360439482Y-51875026D03*
D15*
X361239482Y-51875026D03*
D14*
X360439482Y-54415026D03*
D15*
X361239482Y-54415026D03*
D14*
X360439482Y-56955026D03*
D15*
X361239482Y-56955026D03*
D14*
X360439482Y-59495026D03*
D15*
X361239482Y-59495026D03*
D16*
X360439482Y-62035026D03*
D17*
X361239482Y-62035026D03*
D14*
X360439482Y-64575026D03*
D15*
X361239482Y-64575026D03*
D14*
X360439482Y-67115026D03*
D15*
X361239482Y-67115026D03*
D14*
X360439482Y-69655026D03*
D15*
X361239482Y-69655026D03*
D14*
X360439482Y-72195026D03*
D15*
X361239482Y-72195026D03*
D16*
X360439482Y-74735026D03*
D17*
X361239482Y-74735026D03*
D14*
X360439482Y-77275026D03*
D15*
X361239482Y-77275026D03*
D14*
X360439482Y-79815026D03*
D15*
X361239482Y-79815026D03*
D14*
X360439482Y-82355026D03*
D15*
X361239482Y-82355026D03*
D14*
X360439482Y-84895026D03*
D15*
X361239482Y-84895026D03*
D16*
X360439482Y-87435026D03*
D17*
X361239482Y-87435026D03*
D14*
X360439482Y-89975026D03*
D15*
X361239482Y-89975026D03*
D14*
X360439482Y-92515026D03*
D15*
X361239482Y-92515026D03*
X379019482Y-92515026D03*
D14*
X379819482Y-92515026D03*
D15*
X379019482Y-89975026D03*
D14*
X379819482Y-89975026D03*
D18*
X379019482Y-87435026D03*
D12*
X379819482Y-87435026D03*
D15*
X379019482Y-84895026D03*
D14*
X379819482Y-84895026D03*
D15*
X379019482Y-82355026D03*
D14*
X379819482Y-82355026D03*
D15*
X379019482Y-79815026D03*
D14*
X379819482Y-79815026D03*
D15*
X379019482Y-77275026D03*
D14*
X379819482Y-77275026D03*
D18*
X379019482Y-74735026D03*
D12*
X379819482Y-74735026D03*
D15*
X379019482Y-72195026D03*
D14*
X379819482Y-72195026D03*
D15*
X379019482Y-69655026D03*
D14*
X379819482Y-69655026D03*
D15*
X379019482Y-67115026D03*
D14*
X379819482Y-67115026D03*
D15*
X379019482Y-64575026D03*
D14*
X379819482Y-64575026D03*
D18*
X379019482Y-62035026D03*
D12*
X379819482Y-62035026D03*
D15*
X379019482Y-59495026D03*
D14*
X379819482Y-59495026D03*
D15*
X379019482Y-56955026D03*
D14*
X379819482Y-56955026D03*
D15*
X379019482Y-54415026D03*
D14*
X379819482Y-54415026D03*
D15*
X379019482Y-51875026D03*
D14*
X379819482Y-51875026D03*
D18*
X379019482Y-49335026D03*
D12*
X379819482Y-49335026D03*
D15*
X379019482Y-46795026D03*
D14*
X379819482Y-46795026D03*
D15*
X379019482Y-44255026D03*
D14*
X379819482Y-44255026D03*
%TD*%
D19*
%TO.C,SW11*%
X248262500Y-50337500D03*
D20*
X249532500Y-47797500D03*
D21*
X253342500Y-50337500D03*
D20*
X255882500Y-45257500D03*
D19*
X258422500Y-50337500D03*
%TD*%
%TO.C,SW44*%
X338750000Y-93200000D03*
D20*
X340020000Y-90660000D03*
D21*
X343830000Y-93200000D03*
D20*
X346370000Y-88120000D03*
D19*
X348910000Y-93200000D03*
%TD*%
%TO.C,SW37*%
X186350000Y-93200000D03*
D20*
X187620000Y-90660000D03*
D21*
X191430000Y-93200000D03*
D20*
X193970000Y-88120000D03*
D19*
X196510000Y-93200000D03*
%TD*%
%TO.C,SW19*%
X119675000Y-74150000D03*
D20*
X120945000Y-71610000D03*
D21*
X124755000Y-74150000D03*
D20*
X127295000Y-69070000D03*
D19*
X129835000Y-74150000D03*
%TD*%
%TO.C,SW62*%
X124437500Y-131300000D03*
D20*
X125707500Y-128760000D03*
D21*
X129517500Y-131300000D03*
D20*
X132057500Y-126220000D03*
D19*
X134597500Y-131300000D03*
%TD*%
D10*
%TO.C,REF\u002A\u002A*%
X328180000Y-66490000D03*
%TD*%
D19*
%TO.C,SW16*%
X62525000Y-74150000D03*
D20*
X63795000Y-71610000D03*
D21*
X67605000Y-74150000D03*
D20*
X70145000Y-69070000D03*
D19*
X72685000Y-74150000D03*
%TD*%
%TO.C,SW74*%
X69668750Y-150350000D03*
D20*
X70938750Y-147810000D03*
D21*
X74748750Y-150350000D03*
D20*
X77288750Y-145270000D03*
D19*
X79828750Y-150350000D03*
%TD*%
%TO.C,SW5*%
X124437500Y-50337500D03*
D20*
X125707500Y-47797500D03*
D21*
X129517500Y-50337500D03*
D20*
X132057500Y-45257500D03*
D19*
X134597500Y-50337500D03*
%TD*%
%TO.C,SW22*%
X176825000Y-74150000D03*
D20*
X178095000Y-71610000D03*
D21*
X181905000Y-74150000D03*
D20*
X184445000Y-69070000D03*
D19*
X186985000Y-74150000D03*
%TD*%
%TO.C,SW67*%
X219687500Y-131300000D03*
D20*
X220957500Y-128760000D03*
D21*
X224767500Y-131300000D03*
D20*
X227307500Y-126220000D03*
D19*
X229847500Y-131300000D03*
%TD*%
%TO.C,SW48*%
X114912500Y-112250000D03*
D20*
X116182500Y-109710000D03*
D21*
X119992500Y-112250000D03*
D20*
X122532500Y-107170000D03*
D19*
X125072500Y-112250000D03*
%TD*%
%TO.C,SW13*%
X286362500Y-50337500D03*
D20*
X287632500Y-47797500D03*
D21*
X291442500Y-50337500D03*
D20*
X293982500Y-45257500D03*
D19*
X296522500Y-50337500D03*
%TD*%
%TO.C,SW25*%
X233975000Y-74150000D03*
D20*
X235245000Y-71610000D03*
D21*
X239055000Y-74150000D03*
D20*
X241595000Y-69070000D03*
D19*
X244135000Y-74150000D03*
%TD*%
%TO.C,SW30*%
X48237500Y-93200000D03*
D20*
X49507500Y-90660000D03*
D21*
X53317500Y-93200000D03*
D20*
X55857500Y-88120000D03*
D19*
X58397500Y-93200000D03*
%TD*%
%TO.C,SW40*%
X243500000Y-93200000D03*
D20*
X244770000Y-90660000D03*
D21*
X248580000Y-93200000D03*
D20*
X251120000Y-88120000D03*
D19*
X253660000Y-93200000D03*
%TD*%
%TO.C,SW24*%
X214925000Y-74150000D03*
D20*
X216195000Y-71610000D03*
D21*
X220005000Y-74150000D03*
D20*
X222545000Y-69070000D03*
D19*
X225085000Y-74150000D03*
%TD*%
%TO.C,SW82*%
X333987500Y-155112500D03*
D20*
X335257500Y-152572500D03*
D21*
X339067500Y-155112500D03*
D20*
X341607500Y-150032500D03*
D19*
X344147500Y-155112500D03*
%TD*%
%TO.C,SW10*%
X229212500Y-50337500D03*
D20*
X230482500Y-47797500D03*
D21*
X234292500Y-50337500D03*
D20*
X236832500Y-45257500D03*
D19*
X239372500Y-50337500D03*
%TD*%
%TO.C,SW31*%
X72050000Y-93200000D03*
D20*
X73320000Y-90660000D03*
D21*
X77130000Y-93200000D03*
D20*
X79670000Y-88120000D03*
D19*
X82210000Y-93200000D03*
%TD*%
D10*
%TO.C,REF\u002A\u002A*%
X378957047Y-163970000D03*
%TD*%
%TO.C,REF\u002A\u002A*%
X40860000Y-163970000D03*
%TD*%
D19*
%TO.C,SW38*%
X205400000Y-93200000D03*
D20*
X206670000Y-90660000D03*
D21*
X210480000Y-93200000D03*
D20*
X213020000Y-88120000D03*
D19*
X215560000Y-93200000D03*
%TD*%
%TO.C,SW63*%
X143487500Y-131300000D03*
D20*
X144757500Y-128760000D03*
D21*
X148567500Y-131300000D03*
D20*
X151107500Y-126220000D03*
D19*
X153647500Y-131300000D03*
%TD*%
D10*
%TO.C,REF\u002A\u002A*%
X371070000Y-99470000D03*
%TD*%
D19*
%TO.C,SW76*%
X164918750Y-150350000D03*
D20*
X166188750Y-147810000D03*
D21*
X169998750Y-150350000D03*
D20*
X172538750Y-145270000D03*
D19*
X175078750Y-150350000D03*
%TD*%
D22*
%TO.C,SW83*%
X338694482Y-47295026D03*
D23*
X338694482Y-52295026D03*
X338694482Y-49795026D03*
D24*
X346194482Y-44195026D03*
X346194482Y-55395026D03*
D23*
X353194482Y-52295026D03*
X353194482Y-47295026D03*
%TD*%
D19*
%TO.C,SW7*%
X167300000Y-50337500D03*
D20*
X168570000Y-47797500D03*
D21*
X172380000Y-50337500D03*
D20*
X174920000Y-45257500D03*
D19*
X177460000Y-50337500D03*
%TD*%
D25*
%TO.C,ST59*%
X48523250Y-124315000D03*
D26*
X48523250Y-139525000D03*
D25*
X72399250Y-124315000D03*
D26*
X72399250Y-139525000D03*
%TD*%
D25*
%TO.C,ST76*%
X119998750Y-143365000D03*
D26*
X119998750Y-158575000D03*
D25*
X219998750Y-143365000D03*
D26*
X219998750Y-158575000D03*
%TD*%
D19*
%TO.C,SW53*%
X210162500Y-112250000D03*
D20*
X211432500Y-109710000D03*
D21*
X215242500Y-112250000D03*
D20*
X217782500Y-107170000D03*
D19*
X220322500Y-112250000D03*
%TD*%
%TO.C,SW65*%
X181587500Y-131300000D03*
D20*
X182857500Y-128760000D03*
D21*
X186667500Y-131300000D03*
D20*
X189207500Y-126220000D03*
D19*
X191747500Y-131300000D03*
%TD*%
%TO.C,SW56*%
X267312500Y-112250000D03*
D20*
X268582500Y-109710000D03*
D21*
X272392500Y-112250000D03*
D20*
X274932500Y-107170000D03*
D19*
X277472500Y-112250000D03*
%TD*%
%TO.C,SW21*%
X157775000Y-74150000D03*
D20*
X159045000Y-71610000D03*
D21*
X162855000Y-74150000D03*
D20*
X165395000Y-69070000D03*
D19*
X167935000Y-74150000D03*
%TD*%
%TO.C,SW2*%
X67287500Y-50337500D03*
D20*
X68557500Y-47797500D03*
D21*
X72367500Y-50337500D03*
D20*
X74907500Y-45257500D03*
D19*
X77447500Y-50337500D03*
%TD*%
%TO.C,SW81*%
X314937500Y-155112500D03*
D20*
X316207500Y-152572500D03*
D21*
X320017500Y-155112500D03*
D20*
X322557500Y-150032500D03*
D19*
X325097500Y-155112500D03*
%TD*%
%TO.C,SW50*%
X153012500Y-112250000D03*
D20*
X154282500Y-109710000D03*
D21*
X158092500Y-112250000D03*
D20*
X160632500Y-107170000D03*
D19*
X163172500Y-112250000D03*
%TD*%
%TO.C,SW28*%
X300650000Y-74150000D03*
D20*
X301920000Y-71610000D03*
D21*
X305730000Y-74150000D03*
D20*
X308270000Y-69070000D03*
D19*
X310810000Y-74150000D03*
%TD*%
%TO.C,SW51*%
X172062500Y-112250000D03*
D20*
X173332500Y-109710000D03*
D21*
X177142500Y-112250000D03*
D20*
X179682500Y-107170000D03*
D19*
X182222500Y-112250000D03*
%TD*%
%TO.C,SW43*%
X305412500Y-93200000D03*
D20*
X306682500Y-90660000D03*
D21*
X310492500Y-93200000D03*
D20*
X313032500Y-88120000D03*
D19*
X315572500Y-93200000D03*
%TD*%
%TO.C,SW39*%
X224450000Y-93200000D03*
D20*
X225720000Y-90660000D03*
D21*
X229530000Y-93200000D03*
D20*
X232070000Y-88120000D03*
D19*
X234610000Y-93200000D03*
%TD*%
%TO.C,SW35*%
X148250000Y-93200000D03*
D20*
X149520000Y-90660000D03*
D21*
X153330000Y-93200000D03*
D20*
X155870000Y-88120000D03*
D19*
X158410000Y-93200000D03*
%TD*%
%TO.C,SW9*%
X205400000Y-50337500D03*
D20*
X206670000Y-47797500D03*
D21*
X210480000Y-50337500D03*
D20*
X213020000Y-45257500D03*
D19*
X215560000Y-50337500D03*
%TD*%
%TO.C,SW73*%
X45856250Y-150350000D03*
D20*
X47126250Y-147810000D03*
D21*
X50936250Y-150350000D03*
D20*
X53476250Y-145270000D03*
D19*
X56016250Y-150350000D03*
%TD*%
%TO.C,SW18*%
X100625000Y-74150000D03*
D20*
X101895000Y-71610000D03*
D21*
X105705000Y-74150000D03*
D20*
X108245000Y-69070000D03*
D19*
X110785000Y-74150000D03*
%TD*%
%TO.C,SW3*%
X86337500Y-50337500D03*
D20*
X87607500Y-47797500D03*
D21*
X91417500Y-50337500D03*
D20*
X93957500Y-45257500D03*
D19*
X96497500Y-50337500D03*
%TD*%
%TO.C,SW61*%
X105387500Y-131300000D03*
D20*
X106657500Y-128760000D03*
D21*
X110467500Y-131300000D03*
D20*
X113007500Y-126220000D03*
D19*
X115547500Y-131300000D03*
%TD*%
%TO.C,SW6*%
X148250000Y-50337500D03*
D20*
X149520000Y-47797500D03*
D21*
X153330000Y-50337500D03*
D20*
X155870000Y-45257500D03*
D19*
X158410000Y-50337500D03*
%TD*%
%TO.C,SW70*%
X283981250Y-131300000D03*
D20*
X285251250Y-128760000D03*
D21*
X289061250Y-131300000D03*
D20*
X291601250Y-126220000D03*
D19*
X294141250Y-131300000D03*
%TD*%
%TO.C,SW57*%
X298268750Y-112250000D03*
D20*
X299538750Y-109710000D03*
D21*
X303348750Y-112250000D03*
D20*
X305888750Y-107170000D03*
D19*
X308428750Y-112250000D03*
%TD*%
%TO.C,SW46*%
X76812500Y-112250000D03*
D20*
X78082500Y-109710000D03*
D21*
X81892500Y-112250000D03*
D20*
X84432500Y-107170000D03*
D19*
X86972500Y-112250000D03*
%TD*%
%TO.C,SW12*%
X267312500Y-50337500D03*
D20*
X268582500Y-47797500D03*
D21*
X272392500Y-50337500D03*
D20*
X274932500Y-45257500D03*
D19*
X277472500Y-50337500D03*
%TD*%
D27*
%TO.C,OLED1*%
X366709482Y-104120026D03*
D28*
X369249482Y-104120026D03*
X371789482Y-104120026D03*
X374329482Y-104120026D03*
%TD*%
D19*
%TO.C,SW64*%
X162537500Y-131300000D03*
D20*
X163807500Y-128760000D03*
D21*
X167617500Y-131300000D03*
D20*
X170157500Y-126220000D03*
D19*
X172697500Y-131300000D03*
%TD*%
%TO.C,SW42*%
X281600000Y-93200000D03*
D20*
X282870000Y-90660000D03*
D21*
X286680000Y-93200000D03*
D20*
X289220000Y-88120000D03*
D19*
X291760000Y-93200000D03*
%TD*%
%TO.C,SW4*%
X105387500Y-50337500D03*
D20*
X106657500Y-47797500D03*
D21*
X110467500Y-50337500D03*
D20*
X113007500Y-45257500D03*
D19*
X115547500Y-50337500D03*
%TD*%
D25*
%TO.C,ST28*%
X293792000Y-67165000D03*
D26*
X293792000Y-82375000D03*
D25*
X317668000Y-67165000D03*
D26*
X317668000Y-82375000D03*
%TD*%
D19*
%TO.C,SW49*%
X133962500Y-112250000D03*
D20*
X135232500Y-109710000D03*
D21*
X139042500Y-112250000D03*
D20*
X141582500Y-107170000D03*
D19*
X144122500Y-112250000D03*
%TD*%
%TO.C,SW66*%
X200637500Y-131300000D03*
D20*
X201907500Y-128760000D03*
D21*
X205717500Y-131300000D03*
D20*
X208257500Y-126220000D03*
D19*
X210797500Y-131300000D03*
%TD*%
%TO.C,SW47*%
X95862500Y-112250000D03*
D20*
X97132500Y-109710000D03*
D21*
X100942500Y-112250000D03*
D20*
X103482500Y-107170000D03*
D19*
X106022500Y-112250000D03*
%TD*%
%TO.C,SW75*%
X93481250Y-150350000D03*
D20*
X94751250Y-147810000D03*
D21*
X98561250Y-150350000D03*
D20*
X101101250Y-145270000D03*
D19*
X103641250Y-150350000D03*
%TD*%
%TO.C,SW29*%
X338750000Y-74150000D03*
D20*
X340020000Y-71610000D03*
D21*
X343830000Y-74150000D03*
D20*
X346370000Y-69070000D03*
D19*
X348910000Y-74150000D03*
%TD*%
%TO.C,SW45*%
X50618750Y-112250000D03*
D20*
X51888750Y-109710000D03*
D21*
X55698750Y-112250000D03*
D20*
X58238750Y-107170000D03*
D19*
X60778750Y-112250000D03*
%TD*%
%TO.C,SW77*%
X233975000Y-150350000D03*
D20*
X235245000Y-147810000D03*
D21*
X239055000Y-150350000D03*
D20*
X241595000Y-145270000D03*
D19*
X244135000Y-150350000D03*
%TD*%
%TO.C,SW80*%
X295887500Y-155112500D03*
D20*
X297157500Y-152572500D03*
D21*
X300967500Y-155112500D03*
D20*
X303507500Y-150032500D03*
D19*
X306047500Y-155112500D03*
%TD*%
%TO.C,SW1*%
X43475000Y-50337500D03*
D20*
X44745000Y-47797500D03*
D21*
X48555000Y-50337500D03*
D20*
X51095000Y-45257500D03*
D19*
X53635000Y-50337500D03*
%TD*%
%TO.C,SW54*%
X229212500Y-112250000D03*
D20*
X230482500Y-109710000D03*
D21*
X234292500Y-112250000D03*
D20*
X236832500Y-107170000D03*
D19*
X239372500Y-112250000D03*
%TD*%
%TO.C,SW36*%
X167300000Y-93200000D03*
D20*
X168570000Y-90660000D03*
D21*
X172380000Y-93200000D03*
D20*
X174920000Y-88120000D03*
D19*
X177460000Y-93200000D03*
%TD*%
%TO.C,SW69*%
X257787500Y-131300000D03*
D20*
X259057500Y-128760000D03*
D21*
X262867500Y-131300000D03*
D20*
X265407500Y-126220000D03*
D19*
X267947500Y-131300000D03*
%TD*%
%TO.C,SW68*%
X238737500Y-131300000D03*
D20*
X240007500Y-128760000D03*
D21*
X243817500Y-131300000D03*
D20*
X246357500Y-126220000D03*
D19*
X248897500Y-131300000D03*
%TD*%
%TO.C,SW20*%
X138725000Y-74150000D03*
D20*
X139995000Y-71610000D03*
D21*
X143805000Y-74150000D03*
D20*
X146345000Y-69070000D03*
D19*
X148885000Y-74150000D03*
%TD*%
%TO.C,SW17*%
X81575000Y-74150000D03*
D20*
X82845000Y-71610000D03*
D21*
X86655000Y-74150000D03*
D20*
X89195000Y-69070000D03*
D19*
X91735000Y-74150000D03*
%TD*%
%TO.C,SW55*%
X248262500Y-112250000D03*
D20*
X249532500Y-109710000D03*
D21*
X253342500Y-112250000D03*
D20*
X255882500Y-107170000D03*
D19*
X258422500Y-112250000D03*
%TD*%
%TO.C,SW33*%
X110150000Y-93200000D03*
D20*
X111420000Y-90660000D03*
D21*
X115230000Y-93200000D03*
D20*
X117770000Y-88120000D03*
D19*
X120310000Y-93200000D03*
%TD*%
%TO.C,SW58*%
X338750000Y-112250000D03*
D20*
X340020000Y-109710000D03*
D21*
X343830000Y-112250000D03*
D20*
X346370000Y-107170000D03*
D19*
X348910000Y-112250000D03*
%TD*%
%TO.C,SW78*%
X253025000Y-150350000D03*
D20*
X254295000Y-147810000D03*
D21*
X258105000Y-150350000D03*
D20*
X260645000Y-145270000D03*
D19*
X263185000Y-150350000D03*
%TD*%
%TO.C,SW15*%
X43475000Y-74150000D03*
D20*
X44745000Y-71610000D03*
D21*
X48555000Y-74150000D03*
D20*
X51095000Y-69070000D03*
D19*
X53635000Y-74150000D03*
%TD*%
%TO.C,SW32*%
X91100000Y-93200000D03*
D20*
X92370000Y-90660000D03*
D21*
X96180000Y-93200000D03*
D20*
X98720000Y-88120000D03*
D19*
X101260000Y-93200000D03*
%TD*%
%TO.C,SW34*%
X129200000Y-93200000D03*
D20*
X130470000Y-90660000D03*
D21*
X134280000Y-93200000D03*
D20*
X136820000Y-88120000D03*
D19*
X139360000Y-93200000D03*
%TD*%
%TO.C,SW8*%
X186350000Y-50337500D03*
D20*
X187620000Y-47797500D03*
D21*
X191430000Y-50337500D03*
D20*
X193970000Y-45257500D03*
D19*
X196510000Y-50337500D03*
%TD*%
%TO.C,SW52*%
X191112500Y-112250000D03*
D20*
X192382500Y-109710000D03*
D21*
X196192500Y-112250000D03*
D20*
X198732500Y-107170000D03*
D19*
X201272500Y-112250000D03*
%TD*%
%TO.C,SW79*%
X272075000Y-150350000D03*
D20*
X273345000Y-147810000D03*
D21*
X277155000Y-150350000D03*
D20*
X279695000Y-145270000D03*
D19*
X282235000Y-150350000D03*
%TD*%
%TO.C,SW71*%
X314937500Y-136062500D03*
D20*
X316207500Y-133522500D03*
D21*
X320017500Y-136062500D03*
D20*
X322557500Y-130982500D03*
D19*
X325097500Y-136062500D03*
%TD*%
%TO.C,SW41*%
X262550000Y-93200000D03*
D20*
X263820000Y-90660000D03*
D21*
X267630000Y-93200000D03*
D20*
X270170000Y-88120000D03*
D19*
X272710000Y-93200000D03*
%TD*%
%TO.C,SW23*%
X195875000Y-74150000D03*
D20*
X197145000Y-71610000D03*
D21*
X200955000Y-74150000D03*
D20*
X203495000Y-69070000D03*
D19*
X206035000Y-74150000D03*
%TD*%
%TO.C,SW27*%
X272075000Y-74150000D03*
D20*
X273345000Y-71610000D03*
D21*
X277155000Y-74150000D03*
D20*
X279695000Y-69070000D03*
D19*
X282235000Y-74150000D03*
%TD*%
%TO.C,SW59*%
X55381250Y-131300000D03*
D20*
X56651250Y-128760000D03*
D21*
X60461250Y-131300000D03*
D20*
X63001250Y-126220000D03*
D19*
X65541250Y-131300000D03*
%TD*%
%TO.C,SW14*%
X310175000Y-50337500D03*
D20*
X311445000Y-47797500D03*
D21*
X315255000Y-50337500D03*
D20*
X317795000Y-45257500D03*
D19*
X320335000Y-50337500D03*
%TD*%
%TO.C,SW26*%
X253025000Y-74150000D03*
D20*
X254295000Y-71610000D03*
D21*
X258105000Y-74150000D03*
D20*
X260645000Y-69070000D03*
D19*
X263185000Y-74150000D03*
%TD*%
%TO.C,SW60*%
X86337500Y-131300000D03*
D20*
X87607500Y-128760000D03*
D21*
X91417500Y-131300000D03*
D20*
X93957500Y-126220000D03*
D19*
X96497500Y-131300000D03*
%TD*%
%TO.C,SW72*%
X338750000Y-131300000D03*
D20*
X340020000Y-128760000D03*
D21*
X343830000Y-131300000D03*
D20*
X346370000Y-126220000D03*
D19*
X348910000Y-131300000D03*
%TD*%
D25*
%TO.C,ST57*%
X291410750Y-105265000D03*
D26*
X291410750Y-120475000D03*
D25*
X315286750Y-105265000D03*
D26*
X315286750Y-120475000D03*
%TD*%
M02*
